<svg width="20" height="20" viewBox="0 0 20 20" fill="none" xmlns="http://www.w3.org/2000/svg">
<path fill-rule="evenodd" clip-rule="evenodd" d="M3.125 10.5342V13.26C3.125 13.6935 3.24792 14.118 3.4795 14.4844C3.71108 14.8508 4.04182 15.144 4.43333 15.33L8.6 17.3083C8.90726 17.4543 9.24317 17.53 9.58333 17.53C9.9235 17.53 10.2594 17.4543 10.5667 17.3083L14.7333 15.33C15.1249 15.144 15.4556 14.8508 15.6872 14.4844C15.9188 14.118 16.0417 13.6935 16.0417 13.26V10.535L10.6458 13.2325C10.316 13.3975 9.95218 13.4834 9.58333 13.4834C9.21449 13.4834 8.85071 13.3975 8.52083 13.2325L3.125 10.5342Z" fill="#FF0336"/>
<path fill-rule="evenodd" clip-rule="evenodd" d="M9.07906 2.88633C9.39573 2.72799 9.76906 2.72799 10.0857 2.88633L17.3007 6.49383C18.1299 6.908 18.1299 8.09133 17.3007 8.50633L10.0857 12.1147C9.76906 12.273 9.39573 12.273 9.07906 12.1147L1.86406 8.50633C1.0349 8.09133 1.0349 6.908 1.86406 6.49383L9.07906 2.88633Z" fill="#FF0336"/>
<path fill-rule="evenodd" clip-rule="evenodd" d="M16.5237 6.80382C16.5977 6.65552 16.7276 6.54271 16.8849 6.4902C17.0421 6.43769 17.2137 6.44978 17.362 6.52382L19.0287 7.35715C19.1324 7.40914 19.2196 7.48898 19.2806 7.58774C19.3415 7.6865 19.3737 7.80027 19.3737 7.91632V10.833C19.3737 10.9987 19.3078 11.1577 19.1906 11.2749C19.0734 11.3921 18.9144 11.458 18.7487 11.458C18.5829 11.458 18.4239 11.3921 18.3067 11.2749C18.1895 11.1577 18.1237 10.9987 18.1237 10.833V8.30298L16.8028 7.64215C16.6545 7.56811 16.5417 7.43819 16.4892 7.28097C16.4367 7.12375 16.4496 6.95212 16.5237 6.80382Z" fill="#FF0336"/>
</svg>
