<svg width="17" height="14" viewBox="0 0 17 14" fill="none" xmlns="http://www.w3.org/2000/svg">
<path d="M1.66667 13.3333C1.20833 13.3333 0.816111 13.1703 0.49 12.8442C0.163889 12.5181 0.000555556 12.1256 0 11.6667V1.66667C0 1.20833 0.163333 0.816111 0.49 0.49C0.816667 0.163889 1.20889 0.000555556 1.66667 0H15C15.4583 0 15.8508 0.163333 16.1775 0.49C16.5042 0.816666 16.6672 1.20889 16.6667 1.66667V11.6667C16.6667 12.125 16.5036 12.5175 16.1775 12.8442C15.8514 13.1708 15.4589 13.3339 15 13.3333H1.66667ZM6.66667 8.33333H4.16667C3.93056 8.33333 3.73278 8.41333 3.57333 8.57333C3.41389 8.73333 3.33389 8.93111 3.33333 9.16667C3.33278 9.40222 3.41278 9.60028 3.57333 9.76083C3.73389 9.92139 3.93167 10.0011 4.16667 10H5C5 10.2361 5.08 10.4342 5.24 10.5942C5.4 10.7542 5.59778 10.8339 5.83333 10.8333C6.06889 10.8328 6.26694 10.7528 6.4275 10.5933C6.58806 10.4339 6.66778 10.2361 6.66667 10H7.5C7.73611 10 7.93417 9.92 8.09417 9.76C8.25417 9.6 8.33389 9.40222 8.33333 9.16667V6.66667C8.33333 6.43056 8.25333 6.23278 8.09333 6.07333C7.93333 5.91389 7.73556 5.83389 7.5 5.83333H5V5H7.5C7.73611 5 7.93417 4.92 8.09417 4.76C8.25417 4.6 8.33389 4.40222 8.33333 4.16667C8.33278 3.93111 8.25278 3.73333 8.09333 3.57333C7.93389 3.41333 7.73611 3.33333 7.5 3.33333H6.66667C6.66667 3.09722 6.58667 2.89944 6.42667 2.74C6.26667 2.58056 6.06889 2.50056 5.83333 2.5C5.61111 2.5 5.455 2.60083 5.365 2.8025C5.275 3.00417 5.15333 3.18111 5 3.33333H4.16667C3.93056 3.33333 3.73278 3.41333 3.57333 3.57333C3.41389 3.73333 3.33389 3.93111 3.33333 4.16667V6.66667C3.33333 6.90278 3.41333 7.10083 3.57333 7.26083C3.73333 7.42083 3.93111 7.50056 4.16667 7.5H6.66667V8.33333ZM11.8125 10.0625L12.9792 8.89583C13.0486 8.82639 13.0661 8.75 13.0317 8.66667C12.9972 8.58333 12.9311 8.54167 12.8333 8.54167H10.5C10.4028 8.54167 10.3369 8.58333 10.3025 8.66667C10.2681 8.75 10.2853 8.82639 10.3542 8.89583L11.5208 10.0625C11.5625 10.1042 11.6111 10.125 11.6667 10.125C11.7222 10.125 11.7708 10.1042 11.8125 10.0625ZM10.5 5H12.8333C12.9306 5 12.9967 4.95833 13.0317 4.875C13.0667 4.79167 13.0492 4.71528 12.9792 4.64583L11.8125 3.47917C11.7708 3.4375 11.7222 3.41667 11.6667 3.41667C11.6111 3.41667 11.5625 3.4375 11.5208 3.47917L10.3542 4.64583C10.2847 4.71528 10.2675 4.79167 10.3025 4.875C10.3375 4.95833 10.4033 5 10.5 5Z" fill="#FF0336"/>
</svg>
