<svg width="34" height="34" viewBox="0 0 34 34" fill="none" xmlns="http://www.w3.org/2000/svg">
<g clip-path="url(#clip0_136_4581)">
<path d="M34 6.375L27.625 0C26.2159 1.40872 24.305 2.2001 22.3125 2.2001C20.32 2.2001 18.4091 1.40872 17 0L12.75 4.25L19.125 10.625L10.625 19.125L4.25 12.75L0 17C1.40872 18.4091 2.2001 20.32 2.2001 22.3125C2.2001 24.305 1.40872 26.2159 0 27.625L6.375 34C7.78409 32.5913 9.69501 31.7999 11.6875 31.7999C13.68 31.7999 15.5909 32.5913 17 34L21.25 29.75L14.875 23.375L23.375 14.875L29.75 21.25L34 17C32.5913 15.5909 31.7999 13.68 31.7999 11.6875C31.7999 9.69501 32.5913 7.78409 34 6.375Z" fill="#FF0336"/>
</g>
<defs>
<clipPath id="clip0_136_4581">
<rect width="34" height="34" fill="white"/>
</clipPath>
</defs>
</svg>
