<svg width="134" height="34" viewBox="0 0 134 34" fill="none" xmlns="http://www.w3.org/2000/svg">
<g clip-path="url(#clip0_512_6)">
<path d="M34 6.375L27.625 0C26.2159 1.40872 24.305 2.2001 22.3125 2.2001C20.32 2.2001 18.4091 1.40872 17 0L12.75 4.25L19.125 10.625L10.625 19.125L4.25 12.75L0 17C1.40872 18.4091 2.2001 20.32 2.2001 22.3125C2.2001 24.305 1.40872 26.2159 0 27.625L6.375 34C7.78409 32.5913 9.69501 31.7999 11.6875 31.7999C13.68 31.7999 15.5909 32.5913 17 34L21.25 29.75L14.875 23.375L23.375 14.875L29.75 21.25L34 17C32.5913 15.5909 31.7999 13.68 31.7999 11.6875C31.7999 9.69501 32.5913 7.78409 34 6.375Z" fill="#011E3C"/>
</g>
<path d="M47.2325 30.5V2.68961H55.702L58.0406 19.6445L60.3634 2.68961H68.912V30.5H63.8239V10.4639L60.6321 30.5H55.6388L52.2573 10.4639V30.5H47.2325ZM75.8488 30.7528C74.5847 30.7528 73.6155 30.4895 72.9413 29.9628C72.2777 29.436 71.8247 28.7039 71.5824 27.7664C71.3401 26.8183 71.219 25.7122 71.219 24.4481V6.79796H76.9075V23.7844C76.9075 24.7325 76.9812 25.3962 77.1287 25.7754C77.2762 26.1441 77.6238 26.3284 78.1716 26.3284C78.7615 26.3284 79.1302 26.0651 79.2777 25.5384C79.4357 25.0117 79.5147 24.3322 79.5147 23.5V6.79796H85.1558V30.5H79.4989V27.9718C79.1407 28.8777 78.7088 29.5677 78.2032 30.0418C77.7081 30.5158 76.9233 30.7528 75.8488 30.7528ZM90.4492 30.5L86.6411 6.79796H92.3138L93.6727 22.6309L95.2054 6.79796H100.862L96.991 30.5H90.4492ZM109.237 30.7528C104.518 30.7528 102.158 28.3036 102.158 23.4052V13.8928C102.158 11.6595 102.785 9.87923 104.038 8.55191C105.292 7.21406 107.025 6.54514 109.237 6.54514C111.46 6.54514 113.198 7.21406 114.451 8.55191C115.705 9.87923 116.332 11.6595 116.332 13.8928V23.4052C116.332 28.3036 113.967 30.7528 109.237 30.7528ZM109.237 26.3916C109.711 26.3916 110.048 26.2231 110.248 25.886C110.459 25.5384 110.564 25.1012 110.564 24.5745V12.9921C110.564 11.6121 110.122 10.9221 109.237 10.9221C108.352 10.9221 107.91 11.6121 107.91 12.9921V24.5745C107.91 25.1012 108.01 25.5384 108.21 25.886C108.421 26.2231 108.763 26.3916 109.237 26.3916ZM118.433 30.5V6.79796H124.09V9.81602C124.301 8.91008 124.691 8.14108 125.26 7.50902C125.839 6.86643 126.64 6.54514 127.661 6.54514C129.305 6.54514 130.495 7.05078 131.233 8.06207C131.98 9.07336 132.354 10.4586 132.354 12.2178V30.5H126.777V12.8025C126.777 12.339 126.682 11.9123 126.492 11.5226C126.303 11.1223 125.976 10.9221 125.512 10.9221C125.081 10.9221 124.759 11.0749 124.549 11.3804C124.348 11.6753 124.222 12.0493 124.169 12.5023C124.117 12.9447 124.09 13.3871 124.09 13.8296V30.5H118.433Z" fill="#011E3C"/>
<defs>
<clipPath id="clip0_512_6">
<rect width="34" height="34" fill="white"/>
</clipPath>
</defs>
</svg>
