<svg width="60" height="61" viewBox="0 0 60 61" fill="none" xmlns="http://www.w3.org/2000/svg">
<path d="M22.6999 18.1971C22.8678 17.8609 23.1329 17.583 23.4608 17.3993C23.7886 17.2156 24.1641 17.1347 24.5385 17.1671C24.9129 17.1994 25.2689 17.3435 25.5604 17.5807C25.8519 17.8178 26.0655 18.1371 26.1733 18.4971L30.4389 32.7189L33.9545 25.6971C34.1103 25.3857 34.3497 25.1238 34.6458 24.9408C34.942 24.7577 35.2833 24.6608 35.6315 24.6608C35.9797 24.6608 36.321 24.7577 36.6171 24.9408C36.9133 25.1238 37.1527 25.3857 37.3084 25.6971L40.5358 32.1611H51.8748C53.563 28.6806 54.4195 24.8554 54.3768 20.9873C54.303 13.7088 48.4635 7.78613 41.3596 7.78613C35.7241 7.78613 31.9846 11.2479 30.0018 13.7627C28.0237 11.2443 24.2795 7.78613 18.644 7.78613C11.5401 7.78613 5.70063 13.7088 5.6268 20.9873C5.59645 23.5007 5.94933 26.0041 6.67329 28.4111H17.5928L22.6999 18.1971Z" fill="#FF0336"/>
<path d="M37.698 34.8744L35.625 30.7283L31.677 38.6244C31.5212 38.9357 31.2818 39.1976 30.9856 39.3805C30.6894 39.5635 30.3481 39.6604 30 39.6603C29.9477 39.6603 29.8937 39.658 29.8383 39.6533C29.463 39.6222 29.1058 39.4788 28.8131 39.2417C28.5205 39.0047 28.306 38.6851 28.1977 38.3244L23.932 24.1025L20.4164 31.1244C20.2614 31.4341 20.0237 31.6949 19.7295 31.8778C19.4354 32.0606 19.0963 32.1584 18.75 32.1604H8.12695C9.2207 34.4486 10.6766 36.701 12.4945 38.9174C14.6941 41.5986 18.682 45.8853 27.8918 52.1373C28.5129 52.563 29.2482 52.7908 30.0012 52.7908C30.7541 52.7908 31.4895 52.563 32.1105 52.1373C41.3203 45.8853 45.3082 41.5986 47.5078 38.9174C48.3 37.9531 49.0432 36.9495 49.7344 35.9103H39.375C39.0269 35.9104 38.6856 35.8135 38.3894 35.6305C38.0932 35.4476 37.8538 35.1857 37.698 34.8744ZM54.375 32.1604H51.873C51.2497 33.4593 50.535 34.7125 49.7344 35.9103H54.375C54.8723 35.9103 55.3492 35.7128 55.7008 35.3612C56.0525 35.0095 56.25 34.5326 56.25 34.0353C56.25 33.5381 56.0525 33.0612 55.7008 32.7095C55.3492 32.3579 54.8723 32.1604 54.375 32.1604ZM5.625 28.4104C5.12772 28.4104 4.65081 28.6079 4.29917 28.9595C3.94754 29.3112 3.75 29.7881 3.75 30.2854C3.75 30.7826 3.94754 31.2595 4.29917 31.6112C4.65081 31.9628 5.12772 32.1604 5.625 32.1604H8.12695C7.54702 30.9492 7.06044 29.6956 6.67148 28.4104H5.625Z" fill="#FF0336"/>
</svg>
