<svg width="53" height="53" viewBox="0 0 53 53" fill="none" xmlns="http://www.w3.org/2000/svg">
<g clip-path="url(#clip0_133_4387)">
<path d="M12.725 35.6C12.698 35.3319 12.5721 35.0834 12.3718 34.9031C12.1715 34.7228 11.9111 34.6236 11.6416 34.625H6.52829C6.2588 34.6236 5.99847 34.7228 5.79815 34.9031C5.59784 35.0834 5.47191 35.3319 5.44496 35.6L4.23163 47.105C4.16769 47.7809 4.24563 48.4627 4.46046 49.1067C4.67528 49.7507 5.02225 50.3428 5.47915 50.8449C5.93604 51.3471 6.49278 51.7483 7.11371 52.0228C7.73464 52.2973 8.40606 52.4391 9.08496 52.4391C9.76387 52.4391 10.4353 52.2973 11.0562 52.0228C11.6771 51.7483 12.2339 51.3471 12.6908 50.8449C13.1477 50.3428 13.4946 49.7507 13.7095 49.1067C13.9243 48.4627 14.0022 47.7809 13.9383 47.105L12.725 35.6ZM48.605 47.105L47.3916 35.6C47.3647 35.3319 47.2388 35.0834 47.0384 34.9031C46.8381 34.7228 46.5778 34.6236 46.3083 34.625H41.195C40.9255 34.6236 40.6651 34.7228 40.4648 34.9031C40.2645 35.0834 40.1386 35.3319 40.1116 35.6L38.8983 47.105C38.8344 47.7809 38.9123 48.4627 39.1271 49.1067C39.3419 49.7507 39.6889 50.3428 40.1458 50.8449C40.6027 51.3471 41.1595 51.7483 41.7804 52.0228C42.4013 52.2973 43.0727 52.4391 43.7516 52.4391C44.4305 52.4391 45.102 52.2973 45.7229 52.0228C46.3438 51.7483 46.9005 51.3471 47.3574 50.8449C47.8143 50.3428 48.1613 49.7507 48.3761 49.1067C48.591 48.4627 48.6689 47.7809 48.605 47.105ZM34.7383 5.59167C36.7581 6.39103 38.4909 7.77912 39.7118 9.57572C40.9327 11.3723 41.5853 13.4945 41.585 15.6667V25.4167C41.585 25.704 41.4708 25.9795 41.2677 26.1827C41.0645 26.3859 40.7889 26.5 40.5016 26.5C40.3414 26.5024 40.1834 26.5384 40.0378 26.6056C39.8923 26.6727 39.7625 26.7696 39.6566 26.89C39.5587 27.018 39.4888 27.1652 39.4514 27.3219C39.4141 27.4787 39.4102 27.6416 39.44 27.8L39.9816 30.5083C40.0316 30.753 40.1645 30.973 40.358 31.1309C40.5515 31.2888 40.7936 31.3751 41.0433 31.375H46.2433C46.4777 31.375 46.7058 31.299 46.8933 31.1583C47.0808 31.0177 47.2177 30.82 47.2833 30.595C47.3916 30.205 47.6083 29.49 48.0633 27.8C48.0931 27.6416 48.0892 27.4787 48.0518 27.3219C48.0145 27.1652 47.9446 27.018 47.8466 26.89C47.7408 26.7696 47.6109 26.6727 47.4654 26.6056C47.3199 26.5384 47.1619 26.5024 47.0016 26.5C46.7143 26.5 46.4388 26.3859 46.2356 26.1827C46.0324 25.9795 45.9183 25.704 45.9183 25.4167V15.6667C45.9183 11.6442 44.3204 7.78652 41.4761 4.94221C38.6318 2.09791 34.7741 0.5 30.7516 0.5C29.473 0.502897 28.1995 0.662987 26.96 0.976667C26.604 1.06305 26.2326 1.06305 25.8766 0.976667C24.6371 0.662987 23.3636 0.502897 22.085 0.5C18.0625 0.5 14.2048 2.09791 11.3605 4.94221C8.51621 7.78652 6.91829 11.6442 6.91829 15.6667V25.4167C6.91829 25.704 6.80416 25.9795 6.60099 26.1827C6.39783 26.3859 6.12228 26.5 5.83496 26.5C5.6747 26.5024 5.51671 26.5384 5.37118 26.6056C5.22565 26.6727 5.09579 26.7696 4.98996 26.89C4.89201 27.018 4.8221 27.1652 4.78477 27.3219C4.74744 27.4787 4.74353 27.6416 4.77329 27.8C5.22829 29.49 5.44496 30.205 5.55329 30.595C5.61893 30.82 5.75577 31.0177 5.94329 31.1583C6.13082 31.299 6.35889 31.375 6.59329 31.375H11.7933C12.043 31.3751 12.2851 31.2888 12.4786 31.1309C12.6721 30.973 12.805 30.753 12.855 30.5083L13.4183 27.8C13.4481 27.6416 13.4442 27.4787 13.4068 27.3219C13.3695 27.1652 13.2996 27.018 13.2016 26.89C13.0934 26.7669 12.96 26.6684 12.8105 26.6011C12.661 26.5339 12.4989 26.4994 12.335 26.5C12.0476 26.5 11.7721 26.3859 11.5689 26.1827C11.3658 25.9795 11.2516 25.704 11.2516 25.4167V15.6667C11.2512 13.4945 11.9039 11.3723 13.1248 9.57572C14.3457 7.77912 16.0785 6.39103 18.0983 5.59167C18.2071 5.54461 18.3287 5.53614 18.443 5.56767C18.5573 5.59919 18.6573 5.66882 18.7266 5.765C18.8005 5.85723 18.8407 5.97185 18.8407 6.09C18.8407 6.20815 18.8005 6.32277 18.7266 6.415C16.6875 9.06791 15.583 12.3207 15.585 15.6667C15.585 18.5398 16.7263 21.2953 18.758 23.327C20.7896 25.3586 23.5451 26.5 26.4183 26.5C29.2915 26.5 32.047 25.3586 34.0786 23.327C36.1103 21.2953 37.2516 18.5398 37.2516 15.6667C37.2536 12.3207 36.149 9.06791 34.11 6.415C34.0361 6.32277 33.9959 6.20815 33.9959 6.09C33.9959 5.97185 34.0361 5.85723 34.11 5.765C34.1793 5.66882 34.2793 5.59919 34.3936 5.56767C34.5079 5.53614 34.6295 5.54461 34.7383 5.59167ZM26.4183 22.1667C24.6944 22.1667 23.0411 21.4818 21.8221 20.2629C20.6031 19.0439 19.9183 17.3906 19.9183 15.6667C19.9183 13.7651 20.4189 11.897 21.3698 10.2502C22.3206 8.60333 23.6881 7.2358 25.335 6.285C25.6643 6.09484 26.038 5.99472 26.4183 5.99472C26.7986 5.99472 27.1723 6.09484 27.5016 6.285C29.1485 7.2358 30.516 8.60333 31.4668 10.2502C32.4177 11.897 32.9182 13.7651 32.9183 15.6667C32.9183 17.3906 32.2335 19.0439 31.0145 20.2629C29.7955 21.4818 28.1422 22.1667 26.4183 22.1667Z" fill="#FF0336"/>
</g>
<defs>
<clipPath id="clip0_133_4387">
<rect width="52" height="52" fill="white" transform="translate(0.416992 0.5)"/>
</clipPath>
</defs>
</svg>
