<svg width="53" height="53" viewBox="0 0 53 53" fill="none" xmlns="http://www.w3.org/2000/svg">
<g clip-path="url(#clip0_133_4397)">
<path d="M32.9158 4.83333H30.2074C29.9201 4.83333 29.6446 4.7192 29.4414 4.51603C29.2382 4.31287 29.1241 4.03732 29.1241 3.75V3.20833C29.1241 2.49004 28.8388 1.80116 28.3309 1.29325C27.823 0.785341 27.1341 0.5 26.4158 0.5C25.6975 0.5 25.0086 0.785341 24.5007 1.29325C23.9928 1.80116 23.7074 2.49004 23.7074 3.20833V3.75C23.7074 4.03732 23.5933 4.31287 23.3901 4.51603C23.187 4.7192 22.9114 4.83333 22.6241 4.83333H19.9158C18.4792 4.83333 17.1014 5.40402 16.0856 6.41984C15.0698 7.43566 14.4991 8.81341 14.4991 10.25V12.4167C14.4991 12.704 14.6133 12.9795 14.8164 13.1827C15.0196 13.3859 15.2951 13.5 15.5824 13.5H37.2491C37.5364 13.5 37.812 13.3859 38.0151 13.1827C38.2183 12.9795 38.3324 12.704 38.3324 12.4167V10.25C38.3324 8.81341 37.7618 7.43566 36.7459 6.41984C35.7301 5.40402 34.3524 4.83333 32.9158 4.83333ZM37.2491 16.75H15.5824C15.2951 16.75 15.0196 16.8641 14.8164 17.0673C14.6133 17.2705 14.4991 17.546 14.4991 17.8333V20.2167C14.5216 21.0271 14.8461 21.7999 15.4091 22.3833L18.6158 25.8067C18.8129 26.0055 18.9235 26.2742 18.9235 26.5542C18.9235 26.8342 18.8129 27.1028 18.6158 27.3017L15.4308 30.53C15.1325 30.8286 14.8965 31.1834 14.7366 31.574C14.5767 31.9645 14.4959 32.383 14.4991 32.805V47.0833C14.4991 47.7947 14.6392 48.499 14.9114 49.1562C15.1836 49.8134 15.5826 50.4105 16.0856 50.9135C16.5886 51.4165 17.1857 51.8155 17.8429 52.0877C18.5001 52.3599 19.2045 52.5 19.9158 52.5H32.9158C33.6271 52.5 34.3315 52.3599 34.9887 52.0877C35.6458 51.8155 36.243 51.4165 36.7459 50.9135C37.2489 50.4105 37.6479 49.8134 37.9201 49.1562C38.1923 48.499 38.3324 47.7947 38.3324 47.0833V32.8267C38.3246 31.9558 37.9744 31.123 37.3574 30.5083L34.1508 27.3667C33.9425 27.1675 33.8184 26.8961 33.8041 26.6083C33.8024 26.4663 33.8304 26.3254 33.8864 26.1948C33.9423 26.0642 34.025 25.9467 34.1291 25.85L37.4008 22.47C37.6991 22.1714 37.935 21.8166 38.095 21.426C38.2549 21.0355 38.3356 20.617 38.3324 20.195V17.8333C38.3324 17.546 38.2183 17.2705 38.0151 17.0673C37.812 16.8641 37.5364 16.75 37.2491 16.75ZM31.5941 37.3333L25.5708 44.3533C25.4991 44.4371 25.4036 44.4971 25.2969 44.5252C25.1903 44.5532 25.0776 44.5481 24.974 44.5104C24.8703 44.4727 24.7807 44.4043 24.717 44.3143C24.6533 44.2243 24.6185 44.1169 24.6174 44.0067V39.3267C24.6174 39.0393 24.5033 38.7638 24.3001 38.5606C24.097 38.3575 23.8214 38.2433 23.5341 38.2433H21.6491C21.5434 38.2437 21.4399 38.2131 21.3513 38.1554C21.2628 38.0976 21.1931 38.0152 21.1508 37.9183C21.0994 37.8294 21.0724 37.7285 21.0724 37.6258C21.0724 37.5231 21.0994 37.4223 21.1508 37.3333L27.1741 30.3133C27.2458 30.2295 27.3413 30.1696 27.448 30.1415C27.5546 30.1134 27.6673 30.1186 27.7709 30.1563C27.8746 30.194 27.9642 30.2624 28.0279 30.3524C28.0916 30.4424 28.1264 30.5497 28.1274 30.66V35.34C28.1274 35.6273 28.2416 35.9029 28.4447 36.106C28.6479 36.3092 28.9235 36.4233 29.2108 36.4233H31.0958C31.2015 36.423 31.305 36.4535 31.3936 36.5113C31.4821 36.569 31.5518 36.6514 31.5941 36.7483C31.6455 36.8373 31.6725 36.9381 31.6725 37.0408C31.6725 37.1435 31.6455 37.2444 31.5941 37.3333Z" fill="#FF0336"/>
</g>
<defs>
<clipPath id="clip0_133_4397">
<rect width="52" height="52" fill="white" transform="translate(0.416992 0.5)"/>
</clipPath>
</defs>
</svg>
