<svg width="76" height="76" viewBox="0 0 76 76" fill="none" xmlns="http://www.w3.org/2000/svg">
<path fill-rule="evenodd" clip-rule="evenodd" d="M38 66.5C41.7427 66.5 45.4487 65.7628 48.9065 64.3306C52.3643 62.8983 55.5061 60.799 58.1525 58.1525C60.799 55.5061 62.8983 52.3643 64.3306 48.9065C65.7628 45.4487 66.5 41.7427 66.5 38C66.5 34.2573 65.7628 30.5513 64.3306 27.0935C62.8983 23.6357 60.799 20.4939 58.1525 17.8475C55.5061 15.201 52.3643 13.1017 48.9065 11.6694C45.4487 10.2372 41.7427 9.5 38 9.5C30.4413 9.5 23.1922 12.5027 17.8475 17.8475C12.5027 23.1922 9.5 30.4413 9.5 38C9.5 45.5587 12.5027 52.8078 17.8475 58.1525C23.1922 63.4973 30.4413 66.5 38 66.5ZM37.2653 49.5267L53.0987 30.5267L48.2347 26.4733L34.618 42.8102L27.5722 35.7612L23.0945 40.2388L32.5945 49.7388L35.0455 52.1898L37.2653 49.5267Z" fill="#FF0336"/>
</svg>
