<svg width="76" height="76" viewBox="0 0 76 76" fill="none" xmlns="http://www.w3.org/2000/svg">
<path fill-rule="evenodd" clip-rule="evenodd" d="M38 6.33203C55.4895 6.33203 69.6667 20.5092 69.6667 37.9987C69.6667 55.4882 55.4895 69.6654 38 69.6654C20.5105 69.6654 6.33334 55.4882 6.33334 37.9987C6.33334 20.5092 20.5105 6.33203 38 6.33203ZM46.8667 43.8792C44.5025 46.2054 41.3167 47.5059 38 47.4987C34.6833 47.5059 31.4975 46.2054 29.1333 43.8792C28.8379 43.5812 28.4862 43.3448 28.0986 43.1839C27.711 43.023 27.2953 42.9407 26.8756 42.9419C26.456 42.943 26.0407 43.0276 25.6541 43.1906C25.2674 43.3537 24.9169 43.592 24.6231 43.8916C24.3294 44.1913 24.0981 44.5464 23.9427 44.9362C23.7873 45.3261 23.711 45.7429 23.7182 46.1625C23.7253 46.5821 23.8158 46.9961 23.9844 47.3804C24.1529 47.7647 24.3962 48.1117 24.7 48.4012C28.2479 51.8881 33.0254 53.8389 38 53.832C42.9746 53.8389 47.7521 51.8881 51.3 48.4012C51.8858 47.8103 52.2154 47.0126 52.2177 46.1806C52.22 45.3486 51.8947 44.5491 51.3123 43.955C50.7298 43.3608 49.9369 43.0198 49.105 43.0057C48.2731 42.9915 47.4691 43.3053 46.8667 43.8792ZM26.9167 25.332C25.6569 25.332 24.4487 25.8325 23.5579 26.7233C22.6671 27.6141 22.1667 28.8223 22.1667 30.082C22.1667 31.3418 22.6671 32.55 23.5579 33.4408C24.4487 34.3316 25.6569 34.832 26.9167 34.832C28.1765 34.832 29.3846 34.3316 30.2754 33.4408C31.1662 32.55 31.6667 31.3418 31.6667 30.082C31.6667 28.8223 31.1662 27.6141 30.2754 26.7233C29.3846 25.8325 28.1765 25.332 26.9167 25.332ZM49.0833 25.332C47.8236 25.332 46.6154 25.8325 45.7246 26.7233C44.8338 27.6141 44.3333 28.8223 44.3333 30.082C44.3333 31.3418 44.8338 32.55 45.7246 33.4408C46.6154 34.3316 47.8236 34.832 49.0833 34.832C50.3431 34.832 51.5513 34.3316 52.4421 33.4408C53.3329 32.55 53.8333 31.3418 53.8333 30.082C53.8333 28.8223 53.3329 27.6141 52.4421 26.7233C51.5513 25.8325 50.3431 25.332 49.0833 25.332Z" fill="#FF0336"/>
</svg>
