<svg width="60" height="61" viewBox="0 0 60 61" fill="none" xmlns="http://www.w3.org/2000/svg">
<path d="M51.425 37.4361L55 33.8611L51.425 30.2861L42.5 39.2111L21.075 17.7861L30 8.86113L26.425 5.28613L22.85 8.86113L19.275 5.28613L13.925 10.6361L10.35 7.06113L6.775 10.6361L10.35 14.2111L5 19.5611L8.575 23.1361L5 26.7111L8.575 30.2861L17.5 21.3611L38.925 42.7861L30 51.7111L33.575 55.2861L37.15 51.7111L40.725 55.2861L46.075 49.9361L49.65 53.5111L53.225 49.9361L49.65 46.3611L55 41.0111L51.425 37.4361Z" fill="#FF0336"/>
</svg>
