<svg width="53" height="53" viewBox="0 0 53 53" fill="none" xmlns="http://www.w3.org/2000/svg">
<path fill-rule="evenodd" clip-rule="evenodd" d="M29.3661 8.16345C30.4148 8.36495 31.9466 8.88929 32.6854 10.367C34.3039 13.604 32.9671 16.6806 31.5328 18.5938C30.5968 19.8418 29.3921 21.0161 27.9903 21.7355C27.6978 21.8871 27.1019 22.1688 26.4151 22.1688C25.1346 22.1688 23.8801 21.586 22.8509 20.858C22.6559 21.521 22.4674 22.249 22.3049 23.0203C21.9836 24.5002 21.8094 26.0084 21.7849 27.5226C24.0664 26.786 26.3999 26.864 28.4106 27.9993C29.9217 26.8126 31.6596 25.9477 33.5174 25.4578C36.3341 24.719 39.7141 24.8208 42.7843 26.8661C44.9834 28.333 46.6496 31.0955 46.9854 34.118C47.3364 37.2683 46.2423 40.7133 42.9338 43.361C40.5981 45.2286 37.0383 45.9501 33.7623 46.2123C30.3714 46.4853 26.7899 46.299 24.0101 45.9891C18.8578 45.4171 14.9014 43.9785 12.1368 42.4943C10.3233 41.5193 7.84244 40.1716 7.05594 38.1068C6.52511 36.7071 6.66377 35.0085 6.79377 33.5525C6.96711 31.6436 7.39177 29.2603 8.18694 26.6776C9.77294 21.5231 12.8778 15.424 18.5349 10.7483C20.2748 9.30962 23.1868 8.41696 25.6243 8.11796C26.8809 7.96412 28.2026 7.94245 29.3661 8.16345Z" fill="#FF0336"/>
</svg>
