<svg width="53" height="53" viewBox="0 0 53 53" fill="none" xmlns="http://www.w3.org/2000/svg">
<path d="M20.0902 16.0228C20.2358 15.7315 20.4655 15.4906 20.7497 15.3314C21.0338 15.1722 21.3592 15.1021 21.6837 15.1301C22.0082 15.1582 22.3167 15.283 22.5694 15.4886C22.822 15.6941 23.0071 15.9708 23.1005 16.2828L26.7974 28.6084L29.8443 22.5228C29.9792 22.2529 30.1867 22.026 30.4434 21.8673C30.7001 21.7087 30.9959 21.6247 31.2976 21.6247C31.5994 21.6247 31.8952 21.7087 32.1518 21.8673C32.4085 22.026 32.616 22.2529 32.751 22.5228L35.548 28.125H45.3752C46.8383 25.1085 47.5806 21.7934 47.5436 18.441C47.4796 12.133 42.4187 7 36.262 7C31.3779 7 28.137 10.0002 26.4186 12.1797C24.7042 9.99711 21.4593 7 16.5751 7C10.4184 7 5.35754 12.133 5.29356 18.441C5.26725 20.6193 5.57308 22.7889 6.20051 24.875H15.6641L20.0902 16.0228Z" fill="#FF0336"/>
<path d="M33.0886 30.4762L31.292 26.883L27.8704 33.7262C27.7353 33.9961 27.5279 34.223 27.2712 34.3815C27.0145 34.5401 26.7187 34.6241 26.417 34.6241C26.3716 34.6241 26.3249 34.622 26.2768 34.618C25.9516 34.591 25.642 34.4667 25.3884 34.2613C25.1348 34.0558 24.9489 33.7788 24.855 33.4663L21.1581 21.1406L18.1112 27.2262C17.9769 27.4947 17.7708 27.7207 17.5159 27.8792C17.261 28.0376 16.9672 28.1224 16.667 28.1241H7.46035C8.40827 30.1072 9.67001 32.0593 11.2456 33.9802C13.1519 36.3039 16.6081 40.0191 24.5899 45.4374C25.1282 45.8063 25.7654 46.0038 26.418 46.0038C27.0706 46.0038 27.7079 45.8063 28.2461 45.4374C36.2279 40.0191 39.6841 36.3039 41.5904 33.9802C42.277 33.1444 42.9211 32.2746 43.5201 31.3741H34.542C34.2403 31.3741 33.9445 31.2901 33.6878 31.1315C33.4311 30.973 33.2237 30.7461 33.0886 30.4762ZM47.542 28.1241H45.3736C44.8334 29.2499 44.214 30.3359 43.5201 31.3741H47.542C47.973 31.3741 48.3863 31.2029 48.691 30.8981C48.9958 30.5934 49.167 30.18 49.167 29.7491C49.167 29.3181 48.9958 28.9048 48.691 28.6C48.3863 28.2953 47.973 28.1241 47.542 28.1241ZM5.29199 24.8741C4.86102 24.8741 4.44769 25.0453 4.14294 25.35C3.8382 25.6548 3.66699 26.0681 3.66699 26.4991C3.66699 26.93 3.8382 27.3434 4.14294 27.6481C4.44769 27.9529 4.86102 28.1241 5.29199 28.1241H7.46035C6.95774 27.0744 6.53604 25.9879 6.19895 24.8741H5.29199Z" fill="#FF0336"/>
</svg>
