<svg width="26" height="26" viewBox="0 0 26 26" fill="none" xmlns="http://www.w3.org/2000/svg">
<path d="M6.1535 17.55C6.14002 17.4159 6.07706 17.2917 5.9769 17.2015C5.87674 17.1114 5.74658 17.0618 5.61183 17.0625H3.05516C2.92041 17.0618 2.79025 17.1114 2.69009 17.2015C2.58993 17.2917 2.52697 17.4159 2.5135 17.55L1.90683 23.3025C1.87486 23.6404 1.91383 23.9813 2.02124 24.3034C2.12866 24.6254 2.30214 24.9214 2.53059 25.1725C2.75904 25.4235 3.03741 25.6241 3.34787 25.7614C3.65833 25.8987 3.99404 25.9696 4.3335 25.9696C4.67295 25.9696 5.00866 25.8987 5.31912 25.7614C5.62959 25.6241 5.90796 25.4235 6.1364 25.1725C6.36485 24.9214 6.53834 24.6254 6.64575 24.3034C6.75316 23.9813 6.79213 23.6404 6.76016 23.3025L6.1535 17.55ZM24.0935 23.3025L23.4868 17.55C23.4734 17.4159 23.4104 17.2917 23.3102 17.2015C23.2101 17.1114 23.0799 17.0618 22.9452 17.0625H20.3885C20.2537 17.0618 20.1236 17.1114 20.0234 17.2015C19.9233 17.2917 19.8603 17.4159 19.8468 17.55L19.2402 23.3025C19.2082 23.6404 19.2472 23.9813 19.3546 24.3034C19.462 24.6254 19.6355 24.9214 19.8639 25.1725C20.0924 25.4235 20.3707 25.6241 20.6812 25.7614C20.9917 25.8987 21.3274 25.9696 21.6668 25.9696C22.0063 25.9696 22.342 25.8987 22.6525 25.7614C22.9629 25.6241 23.2413 25.4235 23.4697 25.1725C23.6982 24.9214 23.8717 24.6254 23.9791 24.3034C24.0865 23.9813 24.1255 23.6404 24.0935 23.3025ZM17.1602 2.54583C18.17 2.94552 19.0365 3.63956 19.6469 4.53786C20.2574 5.43616 20.5837 6.49724 20.5835 7.58333V12.4583C20.5835 12.602 20.5264 12.7398 20.4248 12.8414C20.3233 12.9429 20.1855 13 20.0418 13C19.9617 13.0012 19.8827 13.0192 19.8099 13.0528C19.7372 13.0864 19.6722 13.1348 19.6193 13.195C19.5704 13.259 19.5354 13.3326 19.5167 13.411C19.4981 13.4894 19.4961 13.5708 19.511 13.65L19.7818 15.0042C19.8068 15.1265 19.8733 15.2365 19.97 15.3154C20.0667 15.3944 20.1878 15.4375 20.3127 15.4375H22.9127C23.0299 15.4375 23.1439 15.3995 23.2377 15.3292C23.3314 15.2588 23.3998 15.16 23.4327 15.0475C23.4868 14.8525 23.5952 14.495 23.8227 13.65C23.8375 13.5708 23.8356 13.4894 23.8169 13.411C23.7983 13.3326 23.7633 13.259 23.7143 13.195C23.6614 13.1348 23.5965 13.0864 23.5237 13.0528C23.451 13.0192 23.372 13.0012 23.2918 13C23.1482 13 23.0104 12.9429 22.9088 12.8414C22.8072 12.7398 22.7502 12.602 22.7502 12.4583V7.58333C22.7502 5.57211 21.9512 3.64326 20.5291 2.22111C19.1069 0.798956 17.1781 0 15.1668 0C14.5275 0.00144842 13.8908 0.0814933 13.271 0.238333C13.093 0.281526 12.9073 0.281526 12.7293 0.238333C12.1095 0.0814933 11.4728 0.00144842 10.8335 0C8.82227 0 6.89342 0.798956 5.47127 2.22111C4.04912 3.64326 3.25016 5.57211 3.25016 7.58333V12.4583C3.25016 12.602 3.19309 12.7398 3.09151 12.8414C2.98993 12.9429 2.85216 13 2.7085 13C2.62836 13.0012 2.54937 13.0192 2.47661 13.0528C2.40384 13.0864 2.33891 13.1348 2.286 13.195C2.23702 13.259 2.20206 13.3326 2.1834 13.411C2.16473 13.4894 2.16278 13.5708 2.17766 13.65C2.40516 14.495 2.5135 14.8525 2.56766 15.0475C2.60048 15.16 2.6689 15.2588 2.76266 15.3292C2.85642 15.3995 2.97046 15.4375 3.08766 15.4375H5.68766C5.81253 15.4375 5.93358 15.3944 6.03031 15.3154C6.12704 15.2365 6.19352 15.1265 6.2185 15.0042L6.50016 13.65C6.51505 13.5708 6.51309 13.4894 6.49443 13.411C6.47576 13.3326 6.4408 13.259 6.39183 13.195C6.3377 13.1335 6.27103 13.0842 6.19628 13.0506C6.12154 13.0169 6.04046 12.9997 5.9585 13C5.81484 13 5.67706 12.9429 5.57548 12.8414C5.4739 12.7398 5.41683 12.602 5.41683 12.4583V7.58333C5.41664 6.49724 5.74296 5.43616 6.35342 4.53786C6.96387 3.63956 7.83028 2.94552 8.84016 2.54583C8.89457 2.52231 8.95537 2.51807 9.01251 2.53383C9.06965 2.5496 9.11968 2.58441 9.15433 2.6325C9.19125 2.67861 9.21137 2.73593 9.21137 2.795C9.21137 2.85407 9.19125 2.91139 9.15433 2.9575C8.13479 4.28395 7.58251 5.91033 7.5835 7.58333C7.5835 9.01992 8.15418 10.3977 9.17 11.4135C10.1858 12.4293 11.5636 13 13.0002 13C14.4368 13 15.8145 12.4293 16.8303 11.4135C17.8461 10.3977 18.4168 9.01992 18.4168 7.58333C18.4178 5.91033 17.8655 4.28395 16.846 2.9575C16.8091 2.91139 16.789 2.85407 16.789 2.795C16.789 2.73593 16.8091 2.67861 16.846 2.6325C16.8806 2.58441 16.9307 2.5496 16.9878 2.53383C17.045 2.51807 17.1058 2.52231 17.1602 2.54583ZM13.0002 10.8333C12.1382 10.8333 11.3116 10.4909 10.7021 9.88143C10.0926 9.27194 9.75016 8.44529 9.75016 7.58333C9.75019 6.63253 10.0005 5.69849 10.4759 4.87508C10.9513 4.05167 11.6351 3.3679 12.4585 2.8925C12.6232 2.79742 12.81 2.74736 13.0002 2.74736C13.1903 2.74736 13.3771 2.79742 13.5418 2.8925C14.3652 3.3679 15.049 4.05167 15.5244 4.87508C15.9998 5.69849 16.2501 6.63253 16.2502 7.58333C16.2502 8.44529 15.9078 9.27194 15.2983 9.88143C14.6888 10.4909 13.8621 10.8333 13.0002 10.8333Z" fill="black"/>
</svg>
