<svg width="54" height="62" viewBox="0 0 54 62" fill="none" xmlns="http://www.w3.org/2000/svg">
<path d="M31.1347 60.9503C41.0337 58.968 53.8333 51.8461 53.8333 33.432C53.8333 16.6771 41.5688 5.5178 32.7497 0.390969C30.7895 -0.749031 28.5 0.748803 28.5 3.01297V8.80164C28.5 13.368 26.581 21.7026 21.2483 25.1701C18.525 26.9403 15.58 24.2898 15.2507 21.0598L14.9783 18.4061C14.6617 15.3218 11.5203 13.4503 9.05667 15.3313C4.6265 18.7038 0 24.6255 0 33.4288C0 55.947 16.7485 61.5805 25.1212 61.5805C25.6109 61.5805 26.1218 61.5646 26.6538 61.533C22.5182 61.1815 15.8333 58.6165 15.8333 50.3198C15.8333 43.8281 20.5675 39.4423 24.1648 37.3048C25.1338 36.7348 26.2643 37.479 26.2643 38.6031V40.4715C26.2643 41.8965 26.8185 44.129 28.1327 45.6553C29.621 47.3843 31.8028 45.573 31.977 43.2993C32.034 42.5836 32.756 42.1276 33.3767 42.4886C35.4065 43.6761 38 46.2095 38 50.3198C38 56.8051 34.4248 59.7881 31.1347 60.9503Z" fill="#FF0336"/>
</svg>
